<svg xmlns="http://www.w3.org/2000/svg" viewBox="0 0 32 32">
  <rect width="32" height="32" rx="8" fill="#0a0a0a"/>
  <g transform="translate(4.8 4.8) scale(0.7)" fill="none" stroke="#ffffff" stroke-width="1.5">
    <circle cx="16" cy="16" r="11.4"/>
    <g stroke-linecap="round" stroke-width="1.3">
      <line x1="28" y1="16" x2="29.6" y2="16"/>
      <line x1="26.4" y1="22" x2="27.8" y2="22.8"/>
      <line x1="22" y1="26.4" x2="22.8" y2="27.8"/>
      <line x1="16" y1="28" x2="16" y2="29.6"/>
      <line x1="10" y1="26.4" x2="9.2" y2="27.8"/>
      <line x1="5.6" y1="22" x2="4.2" y2="22.8"/>
      <line x1="4" y1="16" x2="2.4" y2="16"/>
      <line x1="5.6" y1="10" x2="4.2" y2="9.2"/>
      <line x1="10" y1="5.6" x2="9.2" y2="4.2"/>
      <line x1="16" y1="4" x2="16" y2="2.4"/>
      <line x1="22" y1="5.6" x2="22.8" y2="4.2"/>
      <line x1="26.4" y1="10" x2="27.8" y2="9.2"/>
    </g>
  </g>
  <path d="M16 11.9c.35 3.15 2.17 4.97 5.32 5.32-3.15.35-4.97 2.17-5.32 5.32-.35-3.15-2.17-4.97-5.32-5.32 3.15-.35 4.97-2.17 5.32-5.32Z" fill="#fdda24"/>
</svg>
